<svg width="60" height="60" viewBox="0 0 60 60" fill="none" xmlns="http://www.w3.org/2000/svg">
<path fill-rule="evenodd" clip-rule="evenodd" d="M29.9532 -3.60012e-05C34.0774 -3.60012e-05 37.9688 0.773352 41.625 2.32013C45.2813 3.86716 48.4673 6.00071 51.1875 8.71853C53.9055 11.4389 56.0391 14.6248 57.586 18.2812C59.1328 21.9374 59.9063 25.8288 59.9063 29.9531C59.9063 34.0794 59.1328 37.9685 57.586 41.6249C56.0391 45.2811 53.9055 48.4693 51.1875 51.1874C48.4673 53.9075 45.2813 56.039 41.625 57.5858C37.9688 59.1326 34.0774 59.9062 29.9532 59.9062C25.8267 59.9062 21.9375 59.1326 18.2813 57.5858C14.625 56.039 11.4368 53.9075 8.71881 51.1874C5.99862 48.4693 3.86718 45.2811 2.32034 41.6249C0.773444 37.9685 -5.96046e-06 34.0794 -5.96046e-06 29.9531C-5.96046e-06 25.8288 0.773444 21.9374 2.32034 18.2812C3.86718 14.6248 5.99862 11.4389 8.71881 8.71853C11.4368 6.00071 14.625 3.86716 18.2813 2.32013C21.9375 0.773352 25.8267 -3.60012e-05 29.9532 -3.60012e-05ZM29.9532 57.5156C33.7961 57.5156 37.382 56.7905 40.711 55.3359C44.0376 53.8833 46.9688 51.9389 49.5 49.4998C51.9368 46.9687 53.8814 44.0398 55.3359 40.7108C56.7883 37.384 57.5157 33.7981 57.5157 29.9531C57.5157 26.1101 56.7883 22.5239 55.3359 19.1951C53.8814 15.8684 51.9368 12.9373 49.5 10.4061C46.9688 7.96934 44.0376 6.02491 40.711 4.5703C37.382 3.11771 33.7961 2.39037 29.9532 2.39037C26.1079 2.39037 22.522 3.11771 19.1953 4.5703C15.8664 6.02491 12.9375 7.96934 10.4062 10.4061C7.9673 12.9373 6.02274 15.8684 4.57039 19.1951C3.11574 22.5239 2.39059 26.1101 2.39059 29.9531C2.39059 33.7981 3.11574 37.384 4.57039 40.7108C6.02274 44.0398 7.9673 46.9687 10.4062 49.4998C12.9375 51.9389 15.8664 53.8833 19.1953 55.3359C22.522 56.7905 26.1079 57.5156 29.9532 57.5156ZM45 19.2654C45.2813 18.892 45.679 18.7031 46.1953 18.7031C46.7095 18.7031 47.1555 18.892 47.5313 19.2654C47.8125 19.6412 47.9532 20.0872 47.9532 20.6014C47.9532 21.1177 47.7641 21.5156 47.3907 21.7969L26.8594 41.7654C26.7649 41.9544 26.6001 42.0709 26.3672 42.117C26.1321 42.1654 25.9212 42.1873 25.7344 42.1873C25.4531 42.1873 25.1939 42.1654 24.9609 42.117C24.7259 42.0709 24.5611 41.9544 24.4687 41.7654L16.4531 33.7498C16.0773 33.3763 15.8907 32.9303 15.8907 32.414C15.8907 31.8998 16.0773 31.4998 16.4531 31.2185C16.7344 30.8451 17.1321 30.6562 17.6485 30.6562C18.1626 30.6562 18.6086 30.8451 18.9843 31.2185L25.7344 37.9685L45 19.2654Z" fill="#FF6363"/>
</svg>
