<svg width="200" height="200" viewBox="0 0 200 200" fill="none" xmlns="http://www.w3.org/2000/svg">
<rect width="200" height="200" fill="#5474FD"/>
<path d="M20.464 88.336C22.304 88.336 23.768 88.712 24.856 89.464C25.944 90.2 26.488 91.304 26.488 92.776C26.488 93.864 26.216 94.776 25.672 95.512C25.144 96.232 24.416 96.776 23.488 97.144C22.576 97.496 21.528 97.672 20.344 97.672L19.792 95.8C21.248 95.8 22.536 96 23.656 96.4C24.792 96.8 25.688 97.376 26.344 98.128C27 98.864 27.328 99.752 27.328 100.792C27.328 101.752 27.152 102.568 26.8 103.24C26.464 103.896 26 104.432 25.408 104.848C24.832 105.248 24.176 105.544 23.44 105.736C22.704 105.912 21.944 106 21.16 106H15.28V88.336H20.464ZM20.872 95.56C21.56 95.56 22.064 95.352 22.384 94.936C22.72 94.52 22.888 94.048 22.888 93.52C22.888 92.912 22.68 92.456 22.264 92.152C21.864 91.848 21.32 91.696 20.632 91.696H18.76V95.56H20.872ZM20.992 102.76C21.504 102.76 21.968 102.696 22.384 102.568C22.8 102.424 23.128 102.208 23.368 101.92C23.608 101.616 23.728 101.24 23.728 100.792C23.728 100.28 23.584 99.896 23.296 99.64C23.008 99.368 22.632 99.184 22.168 99.088C21.72 98.976 21.248 98.92 20.752 98.92H18.76V102.76H20.992ZM49.0351 88.336V106H45.5551V98.824H37.6591V106H34.1791V88.336H37.6591V95.464H45.5551V88.336H49.0351ZM62.2973 88.336C63.4013 88.336 64.3853 88.48 65.2493 88.768C66.1133 89.04 66.8333 89.44 67.4093 89.968C68.0013 90.48 68.4493 91.104 68.7533 91.84C69.0573 92.56 69.2093 93.376 69.2093 94.288C69.2093 95.008 69.0973 95.728 68.8733 96.448C68.6653 97.168 68.3133 97.824 67.8173 98.416C67.3373 99.008 66.6973 99.488 65.8973 99.856C65.0973 100.208 64.1053 100.384 62.9213 100.384H60.4253V106H56.9453V88.336H62.2973ZM62.8973 97.024C63.4253 97.024 63.8653 96.936 64.2173 96.76C64.5693 96.584 64.8413 96.36 65.0333 96.088C65.2413 95.816 65.3853 95.536 65.4653 95.248C65.5613 94.944 65.6093 94.664 65.6093 94.408C65.6093 94.216 65.5773 93.976 65.5133 93.688C65.4653 93.384 65.3533 93.08 65.1773 92.776C65.0013 92.472 64.7293 92.216 64.3613 92.008C64.0093 91.8 63.5293 91.696 62.9213 91.696H60.4253V97.024H62.8973ZM66.1613 99.184L70.5293 106H66.4733L62.0093 99.28L66.1613 99.184ZM75.0691 97.192C75.0691 95.976 75.3011 94.824 75.7651 93.736C76.2291 92.648 76.8691 91.688 77.6851 90.856C78.5171 90.008 79.4771 89.344 80.5651 88.864C81.6531 88.384 82.8211 88.144 84.0691 88.144C85.3011 88.144 86.4611 88.384 87.5491 88.864C88.6371 89.344 89.5971 90.008 90.4291 90.856C91.2771 91.688 91.9331 92.648 92.3971 93.736C92.8771 94.824 93.1171 95.976 93.1171 97.192C93.1171 98.44 92.8771 99.608 92.3971 100.696C91.9331 101.784 91.2771 102.744 90.4291 103.576C89.5971 104.392 88.6371 105.032 87.5491 105.496C86.4611 105.96 85.3011 106.192 84.0691 106.192C82.8211 106.192 81.6531 105.96 80.5651 105.496C79.4771 105.032 78.5171 104.392 77.6851 103.576C76.8691 102.744 76.2291 101.784 75.7651 100.696C75.3011 99.608 75.0691 98.44 75.0691 97.192ZM78.6691 97.192C78.6691 97.976 78.8051 98.712 79.0771 99.4C79.3651 100.072 79.7571 100.672 80.2531 101.2C80.7651 101.712 81.3491 102.112 82.0051 102.4C82.6771 102.688 83.4051 102.832 84.1891 102.832C84.9411 102.832 85.6371 102.688 86.2771 102.4C86.9331 102.112 87.5011 101.712 87.9811 101.2C88.4611 100.672 88.8371 100.072 89.1091 99.4C89.3811 98.712 89.5171 97.976 89.5171 97.192C89.5171 96.392 89.3731 95.648 89.0851 94.96C88.8131 94.272 88.4291 93.672 87.9331 93.16C87.4531 92.632 86.8851 92.224 86.2291 91.936C85.5731 91.648 84.8611 91.504 84.0931 91.504C83.3251 91.504 82.6131 91.648 81.9571 91.936C81.3011 92.224 80.7251 92.632 80.2291 93.16C79.7331 93.672 79.3491 94.272 79.0771 94.96C78.8051 95.648 78.6691 96.392 78.6691 97.192ZM99.9466 106V87.616H99.9706L109.787 101.536L108.299 101.2L118.091 87.616H118.139V106H114.659V95.464L114.875 97.264L108.899 105.76H108.851L102.707 97.264L103.307 95.608V106H99.9466ZM124.072 106L132.04 87.64H132.232L140.2 106H136.168L131.08 93.088L133.6 91.36L127.504 106H124.072ZM129.52 99.616H134.824L136.048 102.544H128.44L129.52 99.616ZM143.837 97.192C143.837 95.976 144.069 94.824 144.533 93.736C144.997 92.648 145.637 91.688 146.453 90.856C147.285 90.008 148.245 89.344 149.333 88.864C150.421 88.384 151.589 88.144 152.837 88.144C154.069 88.144 155.229 88.384 156.317 88.864C157.405 89.344 158.365 90.008 159.197 90.856C160.045 91.688 160.701 92.648 161.165 93.736C161.645 94.824 161.885 95.976 161.885 97.192C161.885 98.44 161.645 99.608 161.165 100.696C160.701 101.784 160.045 102.744 159.197 103.576C158.365 104.392 157.405 105.032 156.317 105.496C155.229 105.96 154.069 106.192 152.837 106.192C151.589 106.192 150.421 105.96 149.333 105.496C148.245 105.032 147.285 104.392 146.453 103.576C145.637 102.744 144.997 101.784 144.533 100.696C144.069 99.608 143.837 98.44 143.837 97.192ZM147.437 97.192C147.437 97.976 147.573 98.712 147.845 99.4C148.133 100.072 148.525 100.672 149.021 101.2C149.533 101.712 150.117 102.112 150.773 102.4C151.445 102.688 152.173 102.832 152.957 102.832C153.709 102.832 154.405 102.688 155.045 102.4C155.701 102.112 156.269 101.712 156.749 101.2C157.229 100.672 157.605 100.072 157.877 99.4C158.149 98.712 158.285 97.976 158.285 97.192C158.285 96.392 158.141 95.648 157.853 94.96C157.581 94.272 157.197 93.672 156.701 93.16C156.221 92.632 155.653 92.224 154.997 91.936C154.341 91.648 153.629 91.504 152.861 91.504C152.093 91.504 151.381 91.648 150.725 91.936C150.069 92.224 149.493 92.632 148.997 93.16C148.501 93.672 148.117 94.272 147.845 94.96C147.573 95.648 147.437 96.392 147.437 97.192ZM184.53 106.72L171.138 94.624L172.17 95.2L172.242 106H168.714V87.64H168.858L181.962 99.688L181.194 99.352L181.122 88.336H184.626V106.72H184.53Z" fill="white"/>
</svg>
