<svg width="57" height="57" viewBox="0 0 57 57" fill="none" xmlns="http://www.w3.org/2000/svg">
<path fill-rule="evenodd" clip-rule="evenodd" d="M56.5313 53.5782L53.5781 56.5315L37.2656 40.2187C36.3274 41.0627 35.2969 41.8142 34.1719 42.4689C33.0468 43.126 31.8735 43.6883 30.6563 44.1565C29.4368 44.6267 28.147 44.9782 26.789 45.2111C25.4289 45.4461 24.093 45.5627 22.7813 45.5627C19.593 45.5627 16.6157 44.954 13.8516 43.7344C11.0852 42.5173 8.67041 40.8758 6.60941 38.8125C4.54613 36.7515 2.92895 34.3369 1.75781 31.5705C0.584506 28.8063 -1.39475e-05 25.8752 -1.39475e-05 22.7814C-1.39475e-05 19.5954 0.584506 16.618 1.75781 13.8518C2.92895 11.0877 4.54613 8.6728 6.60941 6.60951C8.67041 4.54846 11.0852 2.93115 13.8516 1.75788C16.6157 0.586845 19.593 3.11136e-05 22.7813 3.11136e-05C25.875 3.11136e-05 28.8039 0.586845 31.5704 1.75788C34.3345 2.93115 36.7493 4.54846 38.8125 6.60951C40.8735 8.6728 42.515 11.0877 43.7344 13.8518C44.9517 16.618 45.5625 19.5954 45.5625 22.7814C45.5625 24.0952 45.4438 25.4312 45.211 26.7891C44.9758 28.1493 44.6242 29.4392 44.1563 30.6563C43.686 31.876 43.1236 33.047 42.4688 34.1719C41.8118 35.2969 41.0625 36.3297 40.2188 37.2657L56.5313 53.5782ZM2.39063 22.7814C2.39063 25.5939 2.90483 28.2196 3.93749 30.6563C4.96799 33.0954 6.42047 35.2508 8.29691 37.1252C10.1711 39.0017 12.3508 40.4782 14.8359 41.5547C17.3188 42.6336 19.9687 43.172 22.7813 43.172C25.5938 43.172 28.2173 42.6336 30.6563 41.5547C33.093 40.4782 35.2485 39.0017 37.125 37.1252C38.9993 35.2508 40.4758 33.0954 41.5547 30.6563C42.6314 28.2196 43.1718 25.5939 43.1718 22.7814C43.1718 19.9689 42.6314 17.3211 41.5547 14.8359C40.4758 12.3531 38.9993 10.1735 37.125 8.29702C35.2485 6.42265 33.093 4.97031 30.6563 3.93751C28.2173 2.90702 25.5938 2.39071 22.7813 2.39071C19.9687 2.39071 17.3188 2.90702 14.8359 3.93751C12.3508 4.97031 10.1711 6.42265 8.29691 8.29702C6.42047 10.1735 4.96799 12.3531 3.93749 14.8359C2.90483 17.3211 2.39063 19.9689 2.39063 22.7814Z" fill="#5474FD"/>
</svg>
