<svg width="20" height="21" viewBox="0 0 20 21" fill="none" xmlns="http://www.w3.org/2000/svg">
<path fill-rule="evenodd" clip-rule="evenodd" d="M19.9858 18.9959L18.9418 20.0429L13.1748 14.2593C12.8431 14.5584 12.4787 14.825 12.081 15.0571C11.6833 15.2901 11.2685 15.4894 10.8381 15.6554C10.407 15.8221 9.951 15.9468 9.47087 16.0293C8.99001 16.1126 8.51772 16.1541 8.05402 16.1541C6.92685 16.1541 5.87424 15.9382 4.89707 15.5059C3.91901 15.0742 3.06533 14.4922 2.33662 13.7609C1.60728 13.03 1.03554 12.1739 0.621522 11.1932C0.206624 10.2132 0 9.17398 0 8.07703C0 6.9475 0.206624 5.89181 0.621522 4.91119C1.03554 3.93108 1.60728 3.07495 2.33662 2.34334C3.06533 1.6127 3.91901 1.03942 4.89707 0.623448C5.87424 0.208224 6.92685 0 8.05402 0C9.14771 0 10.1833 0.208224 11.1612 0.623448C12.1385 1.03942 12.9922 1.6127 13.7216 2.34334C14.4502 3.07495 15.0306 3.93108 15.4616 4.91119C15.892 5.89181 16.1079 6.9475 16.1079 8.07703C16.1079 8.5429 16.066 9.01666 15.9837 9.49805C15.9006 9.98021 15.7763 10.4374 15.6108 10.8692C15.4446 11.3014 15.2457 11.7167 15.0143 12.1156C14.782 12.5145 14.5171 12.8805 14.2188 13.2123L19.9858 18.9959ZM0.845218 8.07703C0.845218 9.07418 1.02696 10.0052 1.39205 10.8692C1.75641 11.7337 2.26989 12.4979 2.93326 13.1626C3.59588 13.8278 4.36652 14.3512 5.245 14.7331C6.12284 15.1154 7.05967 15.3064 8.05402 15.3064C9.04827 15.3064 9.97588 15.1154 10.8381 14.7331C11.6996 14.3512 12.4616 13.8278 13.125 13.1626C13.7876 12.4979 14.3097 11.7337 14.6911 10.8692C15.0718 10.0052 15.2628 9.07418 15.2628 8.07703C15.2628 7.07988 15.0718 6.14129 14.6911 5.2602C14.3097 4.3799 13.7876 3.60701 13.125 2.94182C12.4616 2.27714 11.6996 1.76239 10.8381 1.39606C9.97588 1.03075 9.04827 0.847728 8.05402 0.847728C7.05967 0.847728 6.12284 1.03075 5.245 1.39606C4.36652 1.76239 3.59588 2.27714 2.93326 2.94182C2.26989 3.60701 1.75641 4.3799 1.39205 5.2602C1.02696 6.14129 0.845218 7.07988 0.845218 8.07703Z" fill="white"/>
</svg>
