<svg width="777" height="95" viewBox="0 0 777 95" fill="none" xmlns="http://www.w3.org/2000/svg">
<g opacity="0.5">
<mask id="path-1-inside-1_0_46" fill="white">
<path fill-rule="evenodd" clip-rule="evenodd" d="M-2.02656e-06 95.0017C-2.02656e-06 95.0017 192.477 -117.457 393.059 95.0017C393.059 95.0017 569.327 -118.752 777 95.0017"/>
</mask>
<path fill-rule="evenodd" clip-rule="evenodd" d="M-2.02656e-06 95.0017C-2.02656e-06 95.0017 192.477 -117.457 393.059 95.0017C393.059 95.0017 569.327 -118.752 777 95.0017" fill="black" fill-opacity="0.01"/>
<path d="M393.059 95.0017L392.332 95.6881L393.109 96.512L393.83 95.6379L393.059 95.0017ZM-2.02656e-06 95.0017C0.741095 95.673 0.741495 95.6726 0.742628 95.6714C0.743984 95.6699 0.745848 95.6678 0.748555 95.6648C0.75397 95.6589 0.762307 95.6497 0.773558 95.6374C0.796059 95.6128 0.83021 95.5755 0.875924 95.5258C0.967352 95.4265 1.10503 95.2778 1.28825 95.0821C1.65469 94.6908 2.20331 94.1115 2.92846 93.3637C4.37878 91.8681 6.53514 89.6988 9.3525 87.0111C14.9875 81.6355 23.2652 74.1881 33.8255 65.9118C54.9504 49.3557 85.1856 29.5016 121.652 16.2699C158.113 3.04034 200.783 -3.56261 246.812 6.34846C292.836 16.2584 342.302 42.6967 392.332 95.6881L393.786 94.3152C343.524 41.0775 293.712 14.4012 247.233 4.39327C200.759 -5.61361 157.701 1.06209 120.97 14.3898C84.2448 27.7154 53.8244 47.6972 32.5918 64.3376C21.9732 72.6596 13.6466 80.1507 7.972 85.564C5.13456 88.2708 2.95979 90.4585 1.49269 91.9714C0.759129 92.7278 0.202452 93.3156 -0.171713 93.7152C-0.358796 93.915 -0.500255 94.0678 -0.595386 94.1711C-0.642952 94.2228 -0.678936 94.2621 -0.703251 94.2887C-0.715408 94.302 -0.724648 94.3122 -0.73096 94.3191C-0.734115 94.3226 -0.736651 94.3254 -0.73823 94.3271C-0.740031 94.3291 -0.741099 94.3303 -2.02656e-06 95.0017ZM393.059 95.0017C393.83 95.6379 393.831 95.6375 393.832 95.6362C393.833 95.6347 393.834 95.6327 393.837 95.6297C393.842 95.6238 393.849 95.6146 393.86 95.6023C393.88 95.5776 393.911 95.5401 393.953 95.4903C394.037 95.3906 394.163 95.2411 394.331 95.0444C394.667 94.651 395.171 94.0686 395.837 93.3167C397.171 91.8128 399.156 89.6311 401.759 86.928C406.964 81.5215 414.636 74.0308 424.491 65.7065C444.205 49.054 472.632 29.0857 507.509 15.7783C542.377 2.47403 583.68 -4.16913 629.183 5.80115C674.686 15.7713 724.474 42.3731 776.283 95.6985L777.717 94.3048C725.689 40.7534 675.567 13.9167 629.611 3.8475C583.657 -6.22163 541.954 0.494809 506.796 13.9097C471.646 27.3215 443.026 47.4321 423.2 64.1786C413.285 72.5537 405.563 80.0927 400.318 85.5408C397.695 88.2651 395.691 90.467 394.341 91.9899C393.666 92.7514 393.154 93.3431 392.81 93.7455C392.638 93.9468 392.508 94.1007 392.421 94.2048C392.377 94.2569 392.344 94.2965 392.322 94.3234C392.311 94.3368 392.302 94.3471 392.297 94.3541C392.294 94.3576 392.291 94.3604 392.29 94.3622C392.288 94.3642 392.287 94.3654 393.059 95.0017Z" fill="white" mask="url(#path-1-inside-1_0_46)"/>
</g>
</svg>
