<svg width="62" height="59" viewBox="0 0 62 59" fill="none" xmlns="http://www.w3.org/2000/svg">
<path fill-rule="evenodd" clip-rule="evenodd" d="M61.3125 28.5469C61.3125 29.204 61.218 29.8126 61.0311 30.375C60.8422 30.9376 60.561 31.4539 60.1874 31.922C59.8117 32.3923 59.3899 32.7657 58.9219 33.047C58.4516 33.3283 57.9375 33.5633 57.375 33.7501C57.6562 34.2203 57.8891 34.7126 58.078 35.2266C58.2648 35.7432 58.3593 36.3297 58.3593 36.9845C58.3593 37.5471 58.2648 38.1094 58.078 38.672C57.8891 39.2346 57.6562 39.7509 57.375 40.2188C56.9993 40.5945 56.5773 40.9461 56.1093 41.2735C55.6391 41.6031 55.171 41.8602 54.7031 42.0471C54.9843 42.5173 55.2172 43.0313 55.4062 43.5939C55.5929 44.1565 55.6875 44.7188 55.6875 45.2814C55.6875 45.9382 55.5929 46.525 55.4062 47.0393C55.2172 47.5555 54.9843 48.0476 54.7031 48.5158C54.3273 48.986 53.9055 49.3836 53.4374 49.7109C52.9673 50.0406 52.453 50.2517 51.8906 50.3438C52.2641 50.814 52.5454 51.3064 52.7343 51.8203C52.9211 52.3369 53.0155 52.9234 53.0155 53.5782C53.0155 54.2352 52.875 54.8923 52.5937 55.547C52.3125 56.2041 51.9367 56.7664 51.4686 57.2346C50.9063 57.7048 50.2953 58.0783 49.6405 58.3595C48.9837 58.6409 48.2805 58.7813 47.5312 58.7813H28.9687C28.3118 58.7813 27.5625 58.6892 26.7188 58.5001C25.8749 58.3135 24.9828 58.0321 24.0468 57.6564C23.1086 57.3751 22.1703 57.0236 21.2343 56.6017C20.2961 56.1799 19.3579 55.782 18.4218 55.4063C17.2968 54.9383 16.1938 54.4705 15.1171 54C14.0383 53.5321 13.2649 53.2969 12.7968 53.2969H-2.94447e-05V25.8752L1.12496 25.7344C6.46871 25.7344 10.125 25.7344 12.0937 25.7344C12.9374 25.7344 13.7109 25.6422 14.4141 25.4531C15.1171 25.2665 15.8423 24.8908 16.5937 24.3282C17.4374 23.8602 18.3977 23.2032 19.4766 22.3596C20.5532 21.5156 21.843 20.4852 23.3437 19.2658C26.2485 16.829 27.9602 13.7813 28.4765 10.1251C28.9907 6.46896 29.25 4.35958 29.25 3.79698C29.25 3.23437 29.3906 2.69623 29.6718 2.17968C29.9531 1.6657 30.3266 1.26578 30.7969 0.98445C31.2649 0.611008 31.757 0.351636 32.2734 0.211092C32.7875 0.0703042 33.2797 3.21865e-05 33.75 3.21865e-05C34.4992 3.21865e-05 35.2485 0.094521 35.9999 0.281364C36.7492 0.47022 37.4523 0.89234 38.1093 1.54705C38.7641 2.2039 39.2805 3.07193 39.6562 4.14852C40.0298 5.22743 40.2187 6.65788 40.2187 8.43755C40.2187 10.0327 40.1001 11.5556 39.8671 13.0079C39.632 14.4625 39.3266 15.8446 38.9531 17.1564C38.6718 18.4702 38.3202 19.6657 37.8984 20.7423C37.4765 21.8211 37.125 22.7353 36.8437 23.4845H55.9687C56.8125 23.4845 57.5375 23.6031 58.1484 23.8361C58.7571 24.0711 59.3437 24.4226 59.9062 24.8908C60.3742 25.361 60.7258 25.8994 60.9609 26.5078C61.1938 27.1188 61.3125 27.7977 61.3125 28.5469ZM55.9687 31.5002C56.4368 31.5002 56.8586 31.4297 57.2343 31.2892C57.6079 31.1486 57.8891 30.9376 58.078 30.6563C58.3593 30.375 58.5923 30.0718 58.7812 29.7424C58.968 29.415 59.0624 29.0171 59.0624 28.5469C59.0624 27.7977 58.7812 27.1407 58.2187 26.5783C57.6562 26.0157 56.9047 25.7344 55.9687 25.7344H47.5312C47.5312 25.8288 47.5312 25.8288 47.5312 25.7344H33.0468L33.8905 24.0468C36.5141 17.5782 37.8281 12.375 37.8281 8.43755C37.8281 5.34375 37.3117 3.53986 36.2812 3.02362C35.2485 2.50933 34.4048 2.2502 33.75 2.2502C33.4686 2.2502 33.0468 2.39074 32.4843 2.67202C31.9218 2.95335 31.6406 3.32911 31.6406 3.79698C31.6406 4.35958 31.5922 5.2977 31.4999 6.6095C31.4055 7.92357 31.1242 9.42197 30.6562 11.1095C30.186 12.7971 29.507 14.5328 28.6171 16.3127C27.7251 18.0945 26.4836 19.6415 24.8905 20.9533C23.2954 22.2672 21.9594 23.3679 20.8828 24.2579C19.8039 25.1499 18.7954 25.8752 17.8593 26.4376C16.9211 27.0002 15.9828 27.422 15.0468 27.7033C14.1086 27.9846 13.1242 28.1251 12.0937 28.1251C11.3422 28.1251 10.5227 28.1251 9.63274 28.1251C8.74064 28.1251 7.82666 28.1251 6.89053 28.1251C6.04682 28.1251 5.22499 28.1251 4.42967 28.1251C3.63197 28.1251 2.95306 28.1251 2.39056 28.1251V50.9064H12.7968C13.4516 50.9064 14.3195 51.1172 15.3984 51.5391C16.475 51.9611 17.811 52.5016 19.4062 53.1563C20.1555 53.5321 20.9751 53.9297 21.8672 54.3516C22.757 54.7736 23.6249 55.1252 24.4687 55.4063C25.4048 55.6875 26.2485 55.947 26.9999 56.1799C27.7492 56.4148 28.4062 56.5315 28.9687 56.5315H44.5781H47.5312C47.9991 56.5315 48.4212 56.4391 48.7968 56.2501C49.1703 56.0633 49.4999 55.8283 49.7812 55.547C50.0624 55.3602 50.2734 55.0789 50.414 54.7031C50.5547 54.3297 50.6249 53.9539 50.6249 53.5782C50.6249 53.1103 50.5547 52.7126 50.414 52.3829C50.2734 52.0556 50.0624 51.7501 49.7812 51.4688C49.4999 51.1878 49.1703 50.9767 48.7968 50.8362C48.4212 50.6954 47.9991 50.6252 47.5312 50.6252H47.25V48.2344H50.4843C50.8579 48.2344 51.2336 48.1642 51.6093 48.0237C51.9829 47.8829 52.3125 47.6721 52.5937 47.3908C52.7804 47.1095 52.9673 46.7822 53.1562 46.4064C53.343 46.0329 53.4374 45.6572 53.4374 45.2814C53.4374 44.9077 53.343 44.532 53.1562 44.1565C52.9673 43.7828 52.7804 43.4534 52.5937 43.1721C52.3125 42.9852 51.9829 42.7984 51.6093 42.6094C51.2336 42.4228 50.8579 42.3282 50.4843 42.3282H49.4999V39.9377H53.0155C53.3891 39.9377 53.7648 39.8672 54.1406 39.7267C54.5141 39.5862 54.8437 39.3751 55.125 39.0938C55.4062 38.8125 55.6391 38.4851 55.8281 38.1094C56.0149 37.7359 56.1093 37.3602 56.1093 36.9845C56.1093 36.5165 56.0149 36.0947 55.8281 35.7189C55.6391 35.3453 55.4062 35.0642 55.125 34.8751C54.8437 34.5937 54.5141 34.3611 54.1406 34.1719C53.7648 33.9853 53.3891 33.8907 53.0155 33.8907H51.8906V31.5002H55.9687Z" fill="#00A2FF"/>
</svg>
